<?xml version="1.0" standalone="no"?>
<!DOCTYPE svg PUBLIC "-//W3C//DTD SVG 20010904//EN" "http://www.w3.org/TR/2001/REC-SVG-20010904/DTD/svg10.dtd">
<svg xmlns="http://www.w3.org/2000/svg" version="1.0" width="500.000000pt" height="500.000000pt" viewBox="0 0 500.000000 500.000000" preserveAspectRatio="xMidYMid meet">
<metadata>
Created by potrace 1.16, written by Peter Selinger 2001-2019
<meta name="Producer" content="Online-Convert"/></metadata>
<g transform="translate(0.000000,500.000000) scale(0.100000,-0.100000)" fill="#000000" stroke="none">
<path d="M932 4448 c3 -29 8 -33 89 -63 152 -56 195 -95 225 -200 15 -55 17 -191 21 -1520 2 -803 0 -1598 -5 -1766 -8 -303 -9 -307 -35 -360 -34 -70 -79 -104 -196 -150 -90 -35 -96 -40 -99 -68 l-3 -31 715 0 716 0 0 85 c0 86 0 86 -36 117 -19 17 -47 54 -61 82 -24 47 -27 66 -34 226 -4 96 -8 489 -8 873 l-1 697 70 0 70 0 0 65 0 65 -70 0 -70 0 0 763 c0 420 3 839 7 931 l6 168 64 -5 63 -5 0 64 0 64 -716 0 -715 0 3 -32z"/>
<path d="M3072 4418 l3 -63 125 -3 c190 -3 263 -33 348 -140 21 -27 128 -214 237 -415 l199 -367 34 0 34 0 -7 108 c-9 158 -35 814 -35 883 l0 59 -470 0 -471 0 3 -62z"/>
<path d="M2605 4271 c-48 -22 -69 -44 -90 -94 -32 -76 -10 -166 54 -220 71 -60 216 -57 286 4 98 87 78 252 -37 308 -57 27 -156 28 -213 2z m253 -93 c62 -30 66 -99 9 -142 -25 -19 -42 -21 -150 -21 -163 0 -207 19 -207 89 0 41 39 76 95 86 64 11 219 4 253 -12z"/>
<path d="M2511 3640 c1 -25 3 -37 6 -28 6 25 32 29 156 26 l109 -3 -136 -99 -136 -100 0 -53 0 -54 26 20 c25 19 40 21 191 21 160 0 164 0 173 -22 7 -18 9 -13 9 27 0 39 -2 46 -10 33 -9 -16 -27 -18 -156 -18 l-146 0 156 113 c98 70 156 119 157 130 0 16 -16 17 -190 17 -169 0 -190 2 -199 18 -8 13 -10 7 -10 -28z"/>
<path d="M2511 3025 c0 -59 2 -75 10 -62 9 15 29 17 184 17 144 0 176 -3 189 -16 15 -14 16 -8 16 63 -1 58 -3 73 -11 61 -9 -16 -29 -18 -189 -18 -160 0 -180 2 -189 18 -8 12 -10 -4 -10 -63z"/>
<path d="M3270 2821 c-56 -101 -115 -194 -147 -229 l-53 -60 0 -104 c0 -100 1 -106 26 -129 36 -33 106 -138 193 -291 71 -124 74 -128 107 -128 l34 0 0 555 0 555 -33 0 c-32 0 -35 -4 -127 -169z"/>
<path d="M2897 2715 c-4 -8 -48 -35 -99 -61 -68 -34 -93 -43 -97 -33 -2 8 -17 26 -32 41 -51 52 -120 31 -148 -45 -15 -38 -14 -259 0 -234 9 15 29 17 189 17 160 0 180 -2 189 -17 8 -13 10 2 11 60 0 71 -1 77 -16 63 -11 -12 -36 -16 -95 -16 -76 0 -79 1 -79 23 0 20 15 30 95 66 l95 44 0 53 c0 55 -4 65 -13 39z m-213 -134 c10 -11 19 -35 19 -53 l2 -33 -94 -3 -94 -3 6 43 c7 53 27 68 92 68 39 0 56 -5 69 -19z"/>
<path d="M2738 2123 c-15 -16 -30 -41 -34 -57 l-7 -28 -12 29 c-33 78 -124 82 -160 8 -18 -39 -22 -274 -4 -242 9 15 29 17 184 17 144 0 176 -3 189 -16 15 -14 16 -7 16 81 0 53 -5 116 -11 141 -22 87 -108 123 -161 67z m134 -90 c10 -11 21 -36 25 -56 l6 -37 -97 0 -96 0 0 31 c0 39 16 68 43 79 32 14 97 4 119 -17z m-204 -10 c11 -10 23 -33 27 -50 l7 -33 -91 0 -91 0 0 30 c0 44 31 70 84 70 27 0 51 -7 64 -17z"/>
<path d="M2895 1585 c-6 -8 -93 -43 -195 -78 -180 -63 -185 -65 -185 -92 0 -27 5 -29 179 -90 123 -43 185 -69 198 -85 l18 -22 0 43 c0 30 -3 39 -9 30 -9 -15 -41 -12 -93 8 -27 10 -28 14 -28 76 0 62 1 66 28 76 52 20 84 23 93 8 5 -9 9 15 9 64 0 42 -1 77 -3 77 -1 0 -7 -7 -12 -15z"/>
<path d="M2548 1003 l-38 -4 0 -147 c1 -105 4 -142 11 -129 9 15 29 17 189 17 160 0 180 -2 189 -17 8 -13 10 4 11 67 0 79 -1 83 -16 62 -14 -20 -24 -22 -100 -22 l-84 0 0 39 c0 31 6 44 28 60 l27 20 -60 0 -60 0 28 -20 c21 -16 27 -29 27 -60 l0 -39 -90 0 -90 0 0 60 c0 58 2 62 31 78 17 9 38 22 47 29 19 13 21 13 -50 6z"/>
</g>
</svg>
